<svg xmlns="http://www.w3.org/2000/svg" viewBox="0 0 183.85 60.78"><defs><style>.cls-1{fill:#1a1a18;}.cls-2{fill:#a52d36;}</style></defs><title>Element 1</title><g id="Ebene_2" data-name="Ebene 2"><g id="Ebene_1-2" data-name="Ebene 1"><path class="cls-1" d="M40.29,18.13H22.94v7.93h6.54v8.28a9.73,9.73,0,0,1-4,.72c-8.17,0-14-5-14-13.21C11.53,12.07,19,8.29,28,8.29A21.27,21.27,0,0,1,38.24,11l.91-9.13C35.06.3,29.24,0,26.48,0,11.11,0,0,6.07,0,21.85s12.91,21.5,24.08,21.5a61.9,61.9,0,0,0,16.21-1.92Z"/><path class="cls-1" d="M70.58,11a22.93,22.93,0,0,0-3.66-.36c-4.68,0-7.38,2.52-9.25,6.48h-.11V11.35H47.71V42.63H58.52V29.42c0-6.12,2.82-9.79,7.86-9.79A12.45,12.45,0,0,1,70,20Z"/><path class="cls-1" d="M90,35.78c-5,0-7-4.14-7-8.76s2-8.83,7-8.83,7,4.15,7,8.83-2,8.76-7,8.76m0,7.57c10.32,0,18.19-6,18.19-16.33S100.28,10.63,90,10.63s-18.2,6-18.2,16.39S79.63,43.35,90,43.35"/><path class="cls-1" d="M112.77,42.63h10.8V29.42c0-6.72,2.29-9.79,6.73-9.79,2.94,0,5,2,5,7.87V42.63h10.81V23.12c0-6.49-3.42-12.49-12-12.49-4.92,0-9.25,2-11.41,6.48h-.12V11.35h-9.84Z"/><path class="cls-1" d="M162.12,24c.24-3.61,2.1-6.55,6-6.55,4.32,0,6,2.94,6,6.55Zm21.73,6.12v-2c0-9.31-4.2-17.53-15.79-17.53-9.73,0-16.75,6-16.75,16.33s7.86,16.39,18.19,16.39a31.33,31.33,0,0,0,11.47-2V33.74a20.24,20.24,0,0,1-9.55,2.4c-5.28,0-8.58-1.68-9.18-6Z"/><path class="cls-2" d="M2.77,51.91H4.86l1,5.89h0l1-5.89H9.5l1.08,5.89h0l1-5.89h2l-1.71,7.67H9.25L8.16,53.69h0l-1,5.89H4.48Z"/><path class="cls-2" d="M14.49,51.91h2v7.67h-2Z"/><path class="cls-2" d="M18.09,57.69a4.44,4.44,0,0,0,2.11.51c.65,0,1.27-.13,1.27-.75,0-1.43-3.63-.53-3.63-3.32,0-1.85,1.8-2.35,3.34-2.35a6.7,6.7,0,0,1,2,.28L23,53.64a4.16,4.16,0,0,0-1.71-.35c-.51,0-1.37.05-1.37.72,0,1.24,3.63.4,3.63,3.18,0,2-1.67,2.53-3.38,2.53a8.13,8.13,0,0,1-2.29-.33Z"/><path class="cls-2" d="M24.81,57.69a4.44,4.44,0,0,0,2.11.51c.65,0,1.27-.13,1.27-.75,0-1.43-3.63-.53-3.63-3.32,0-1.85,1.8-2.35,3.34-2.35a6.7,6.7,0,0,1,2,.28l-.13,1.58A4.19,4.19,0,0,0,28,53.29c-.51,0-1.37.05-1.37.72,0,1.24,3.63.4,3.63,3.18,0,2-1.68,2.53-3.38,2.53a8.08,8.08,0,0,1-2.29-.33Z"/><path class="cls-2" d="M31.45,51.91h5.41v1.45H33.5v1.58h3.17v1.45H33.5v1.74H37v1.45H31.45Z"/><path class="cls-2" d="M38.26,51.91h2.6l2.6,5.21h0l0-5.21h1.87v7.67H42.78l-2.69-5.24h0l.07,5.24H38.26Z"/><path class="cls-2" d="M46.82,57.8h1.85l-1.08,3H46.08Z"/><path class="cls-2" d="M53.51,51.91H56.3c2.67,0,4.54.83,4.54,3.8s-1.92,3.87-4.54,3.87H53.51Zm2,6.16h.79a2.33,2.33,0,1,0,0-4.65h-.79Z"/><path class="cls-2" d="M64.35,51.91h2.51l3,7.67H67.57L67,58H64.12l-.61,1.63H61.44Zm1.25,1.58h0l-1,3h1.93Z"/><path class="cls-2" d="M70.64,57.69a4.44,4.44,0,0,0,2.11.51c.65,0,1.27-.13,1.27-.75,0-1.43-3.63-.53-3.63-3.32,0-1.85,1.8-2.35,3.34-2.35a6.7,6.7,0,0,1,2,.28l-.13,1.58a4.16,4.16,0,0,0-1.71-.35c-.51,0-1.37.05-1.37.72,0,1.24,3.63.4,3.63,3.18,0,2-1.67,2.53-3.38,2.53a8.13,8.13,0,0,1-2.29-.33Z"/><path class="cls-2" d="M80.72,57.69a4.48,4.48,0,0,0,2.12.51c.64,0,1.26-.13,1.26-.75,0-1.43-3.63-.53-3.63-3.32,0-1.85,1.8-2.35,3.34-2.35a6.65,6.65,0,0,1,2,.28l-.13,1.58a4.14,4.14,0,0,0-1.7-.35c-.52,0-1.38.05-1.38.72,0,1.24,3.63.4,3.63,3.18,0,2-1.67,2.53-3.37,2.53a8,8,0,0,1-2.29-.33Z"/><path class="cls-2" d="M87.52,51.91h2v7.67h-2Z"/><path class="cls-2" d="M91,51.91h5.41v1.45H93.08v1.58h3.18v1.45H93.08v1.74h3.49v1.45H91Z"/><path class="cls-2" d="M100.55,51.91h2.09l1,5.89h0l1-5.89h2.6l1.08,5.89h0l1-5.89h2l-1.72,7.67H107l-1.09-5.89h0l-1,5.89h-2.65Z"/><path class="cls-2" d="M112.12,51.91h5.41v1.45h-3.37v1.58h3.18v1.45h-3.18v1.74h3.49v1.45h-5.53Z"/><path class="cls-2" d="M119,51.91h2v7.67h-2Z"/><path class="cls-2" d="M123.88,53.42H122V51.91h5.83v1.51h-1.89v6.16h-2.05Z"/><path class="cls-2" d="M128.62,51.91H134v1.45h-3.36v1.58h3.17v1.45h-3.17v1.74h3.48v1.45h-5.53Z"/><path class="cls-2" d="M135.34,51.91H139c1.36,0,2.47.61,2.47,1.93A1.79,1.79,0,0,1,140,55.78v0c.66.18.7.76,1.09,1.69l.75,2.09h-2.14l-.44-1.38c-.41-1.32-.68-1.65-1.44-1.65h-.43v3h-2Zm2,3.19h.54c.66,0,1.5,0,1.5-.89s-.72-.85-1.5-.85h-.54Z"/><path class="cls-2" d="M142.67,51.91h3.53c1.43,0,2.5.62,2.5,1.94a1.75,1.75,0,0,1-1.35,1.8v0c1,.21,1.55.76,1.55,1.69,0,1.84-1.62,2.22-3,2.22h-3.24Zm2.05,3h.57c.67,0,1.36-.16,1.36-.81s-.66-.77-1.34-.77h-.59Zm0,3.19h.6c.75,0,1.53-.11,1.53-.89s-.8-.91-1.5-.91h-.63Z"/><path class="cls-2" d="M150,51.91h3.65c1.36,0,2.47.61,2.47,1.93a1.79,1.79,0,0,1-1.47,1.94v0c.66.18.7.76,1.09,1.69l.75,2.09h-2.14l-.44-1.38c-.42-1.32-.68-1.65-1.44-1.65h-.43v3h-2Zm2,3.19h.54c.66,0,1.5,0,1.5-.89s-.72-.85-1.5-.85h-.54Z"/><path class="cls-2" d="M157.5,51.91h2v7.67h-2Z"/><path class="cls-2" d="M161.1,51.91h2.61l2.59,5.21h0l0-5.21h1.87v7.67h-2.54l-2.68-5.24h0l.06,5.24H161.1Z"/><path class="cls-2" d="M176.72,59.36a11.44,11.44,0,0,1-3,.36c-2.05,0-4.41-1-4.41-3.94s2-4,4.85-4a7.3,7.3,0,0,1,2.32.34l-.17,1.67a3.81,3.81,0,0,0-1.87-.5c-1.66,0-3,.7-3,2.49A2.35,2.35,0,0,0,174,58.2a2,2,0,0,0,.73-.13V56.55h-1.2V55.1h3.18Z"/><path class="cls-2" d="M179.5,53.42h-1.89V51.91h5.82v1.51h-1.89v6.16h-2Z"/></g></g></svg>